<svg width="14" height="14" viewBox="0 0 14 14" fill="none" xmlns="http://www.w3.org/2000/svg">
	<path fill-rule="evenodd" clip-rule="evenodd" d="M6.00017 0.333008C5.09656 0.333085 4.20608 0.549251 3.40301 0.96347C2.59994 1.37769 1.90756 1.97795 1.38366 2.71418C0.859755 3.4504 0.519509 4.30124 0.391308 5.1957C0.263107 6.09017 0.350669 7.00232 0.646688 7.85606C0.942707 8.7098 1.4386 9.48038 2.09299 10.1035C2.74739 10.7266 3.54131 11.1842 4.40851 11.4381C5.27572 11.692 6.19106 11.7348 7.07818 11.5629C7.9653 11.3911 8.79847 11.0096 9.50817 10.4503L11.9428 12.885C12.0686 13.0064 12.237 13.0736 12.4118 13.0721C12.5866 13.0706 12.7538 13.0005 12.8774 12.8769C13.001 12.7533 13.0711 12.5861 13.0726 12.4113C13.0741 12.2365 13.0069 12.0681 12.8855 11.9423L10.4508 9.50767C11.1095 8.67209 11.5196 7.66794 11.6342 6.61016C11.7489 5.55237 11.5634 4.48369 11.099 3.5264C10.6346 2.56912 9.91009 1.76191 9.00837 1.19716C8.10665 0.632412 7.06415 0.332936 6.00017 0.333008ZM1.66684 5.99967C1.66684 4.8504 2.12338 3.7482 2.93604 2.93554C3.7487 2.12289 4.8509 1.66634 6.00017 1.66634C7.14944 1.66634 8.25164 2.12289 9.0643 2.93554C9.87696 3.7482 10.3335 4.8504 10.3335 5.99967C10.3335 7.14895 9.87696 8.25115 9.0643 9.0638C8.25164 9.87646 7.14944 10.333 6.00017 10.333C4.8509 10.333 3.7487 9.87646 2.93604 9.0638C2.12338 8.25115 1.66684 7.14895 1.66684 5.99967Z" fill="#06172C" fill-opacity="0.6"/>
</svg>